<svg xmlns="http://www.w3.org/2000/svg" xmlns:xlink="http://www.w3.org/1999/xlink" id="Logo" x="0px" y="0px" viewBox="0 0 448 46" style="enable-background:new 0 0 448 46;" xml:space="preserve"><style type="text/css">	.st0{fill:#041C2C;}	.st1{fill:#F93822;}</style><g>	<path class="st0" d="M448,20.4c-1.1-1.4-2.6-2.5-4.6-3.2c-1.9-0.7-3.9-1-5.9-1c-1.4,0-2.8,0.2-4.1,0.5c-1.3,0.3-2.5,0.9-3.5,1.6  c-1,0.7-1.9,1.6-2.5,2.8c-0.6,1.1-1,2.5-1,4c0,1.3,0.2,2.4,0.7,3.3c0.5,0.9,1.1,1.6,1.9,2.2c0.8,0.6,1.7,1.1,2.6,1.5  c1,0.4,2,0.7,3.1,0.9c2.1,0.5,3.7,1,4.8,1.5c1.1,0.5,1.6,1.3,1.6,2.5c0,0.6-0.1,1.1-0.4,1.6c-0.3,0.4-0.6,0.8-1.1,1  c-0.4,0.3-0.9,0.4-1.5,0.6c-0.5,0.1-1,0.2-1.5,0.2c-1.5,0-2.9-0.3-4.1-1c-1.2-0.7-2.2-1.5-3-2.5l-4.6,4.3c1.4,1.5,3.1,2.6,5.1,3.4  c2.1,0.8,4.2,1.2,6.3,1.2c1.5,0,3-0.2,4.4-0.5c1.4-0.3,2.7-0.9,3.7-1.6c1.1-0.7,1.9-1.7,2.6-2.9c0.6-1.2,1-2.6,1-4.3  c0-1.4-0.3-2.5-0.8-3.5c-0.5-0.9-1.3-1.7-2.1-2.4c-0.9-0.6-1.8-1.2-2.9-1.5c-1.1-0.4-2.1-0.7-3.2-0.9c-2-0.5-3.5-0.9-4.5-1.4  c-1-0.4-1.5-1.2-1.5-2.3c0-1.1,0.5-1.9,1.4-2.3c0.9-0.5,2-0.7,3.1-0.7c1.3,0,2.5,0.3,3.5,0.9c1.1,0.6,1.9,1.3,2.6,2.1L448,20.4  L448,20.4z M397.1,44.9h7V30.6h0.2l11,14.3h9.2l-12.8-15.3L423.8,17h-9l-10.6,11.7h-0.2V1h-7V44.9L397.1,44.9z M392.4,20.6  c-1.1-1.4-2.6-2.4-4.6-3.2c-1.9-0.8-3.9-1.2-6-1.2c-2.1,0-4,0.3-5.8,1c-1.8,0.7-3.4,1.7-4.7,3c-1.4,1.3-2.4,2.8-3.2,4.7  c-0.8,1.8-1.2,3.9-1.2,6.1c0,2.3,0.4,4.4,1.2,6.2c0.8,1.8,1.9,3.4,3.3,4.7c1.4,1.3,3,2.2,4.8,2.9c1.8,0.7,3.8,1,5.8,1  c2.1,0,4-0.3,5.8-1c1.8-0.7,3.3-1.6,4.4-2.9l-4.4-4.4c-0.7,0.8-1.5,1.4-2.6,1.9c-1.1,0.4-2.2,0.6-3.3,0.6c-1.3,0-2.5-0.3-3.5-0.8  c-1-0.5-1.8-1.2-2.5-2.1c-0.7-0.9-1.2-1.8-1.5-2.9c-0.3-1.1-0.5-2.1-0.5-3.2c0-1.1,0.2-2.2,0.5-3.2c0.3-1.1,0.8-2,1.4-2.9  c0.6-0.9,1.4-1.5,2.4-2.1c1-0.5,2.1-0.8,3.4-0.8c1.1,0,2.2,0.3,3.3,0.8c1.1,0.5,1.9,1.2,2.4,1.9L392.4,20.6L392.4,20.6z   M353.1,44.9h7V17h-7V44.9L353.1,44.9z M331.9,44.9h7V30c0-0.5,0.1-1.2,0.3-2c0.2-0.9,0.6-1.7,1.1-2.5c0.5-0.8,1.3-1.5,2.3-2.1  c1-0.6,2.2-0.9,3.8-0.9c0.3,0,0.6,0,1,0.1c0.3,0,0.7,0.1,1.2,0.2v-6.4c-0.2-0.1-0.5-0.1-0.8-0.1c-0.3,0-0.6,0-0.9,0  c-1.9,0-3.5,0.5-4.9,1.5c-1.4,1-2.5,2.3-3.3,4h-0.1V17h-6.7V44.9L331.9,44.9z M317.5,34.1c-0.3,1.1-0.8,2.1-1.5,2.9  c-0.7,0.9-1.5,1.6-2.5,2.1c-1,0.5-2.2,0.8-3.5,0.8c-1.3,0-2.4-0.3-3.4-0.8c-1-0.5-1.9-1.2-2.6-2.1c-0.7-0.9-1.3-1.8-1.6-2.9  c-0.4-1.1-0.6-2.1-0.6-3.2c0-1.1,0.2-2.2,0.6-3.3c0.4-1.1,0.9-2.1,1.6-2.9c0.7-0.9,1.6-1.6,2.6-2.1c1-0.5,2.1-0.8,3.4-0.8  c1.4,0,2.5,0.3,3.5,0.8c1,0.5,1.8,1.2,2.5,2.1c0.7,0.9,1.2,1.8,1.5,2.9c0.3,1.1,0.5,2.1,0.5,3.2C318,31.9,317.9,33,317.5,34.1   M295.1,1v43.9h6.6v-4.2h0.1c1,1.6,2.3,2.9,4,3.7c1.7,0.9,3.6,1.3,5.6,1.3c2.1,0,4-0.4,5.7-1.2c1.7-0.8,3.1-1.9,4.3-3.2  c1.2-1.3,2.1-2.9,2.7-4.7c0.6-1.8,1-3.7,1-5.8c0-2.1-0.3-4-1-5.8c-0.7-1.8-1.6-3.3-2.8-4.7c-1.2-1.3-2.6-2.4-4.3-3.1  c-1.7-0.8-3.5-1.1-5.5-1.1c-1.3,0-2.4,0.1-3.4,0.4c-1,0.3-1.9,0.7-2.6,1.1c-0.8,0.4-1.4,0.9-1.9,1.4c-0.5,0.5-1,1-1.3,1.5H302V1  H295.1L295.1,1z M259.3,44.9h7V30c0-0.5,0.1-1.2,0.3-2c0.2-0.9,0.6-1.7,1.1-2.5c0.5-0.8,1.3-1.5,2.3-2.1c1-0.6,2.2-0.9,3.8-0.9  c0.3,0,0.6,0,1,0.1c0.3,0,0.7,0.1,1.2,0.2v-6.4c-0.2-0.1-0.5-0.1-0.8-0.1c-0.3,0-0.6,0-0.9,0c-1.9,0-3.5,0.5-4.9,1.5  c-1.4,1-2.5,2.3-3.3,4h-0.1V17h-6.7V44.9L259.3,44.9z M229.8,27.6c0.3-1.1,0.8-2,1.5-2.9c0.7-0.9,1.5-1.5,2.5-2.1  c1-0.5,2.2-0.8,3.6-0.8c1.4,0,2.6,0.3,3.6,0.8c1,0.5,1.8,1.2,2.5,2.1c0.7,0.9,1.2,1.8,1.5,2.9c0.3,1.1,0.5,2.1,0.5,3.2  c0,1.1-0.2,2.2-0.5,3.3c-0.3,1.1-0.8,2.1-1.5,2.9c-0.7,0.9-1.5,1.6-2.5,2.1c-1,0.5-2.2,0.8-3.6,0.8c-1.4,0-2.6-0.3-3.6-0.8  c-1-0.5-1.8-1.2-2.5-2.1c-0.7-0.9-1.2-1.8-1.5-2.9c-0.3-1.1-0.5-2.2-0.5-3.3C229.3,29.8,229.4,28.7,229.8,27.6 M223.4,36.9  c0.8,1.8,1.9,3.4,3.2,4.7c1.4,1.3,3,2.3,4.8,3.1c1.9,0.7,3.8,1.1,5.9,1.1c2.1,0,4.1-0.4,5.9-1.1c1.9-0.7,3.5-1.8,4.8-3.1  c1.4-1.3,2.4-2.9,3.2-4.7c0.8-1.8,1.2-3.8,1.2-6c0-2.2-0.4-4.2-1.2-6c-0.8-1.8-1.9-3.3-3.2-4.6c-1.4-1.3-3-2.3-4.8-3  c-1.9-0.7-3.8-1-5.9-1c-2.1,0-4.1,0.3-5.9,1c-1.9,0.7-3.5,1.7-4.8,3c-1.4,1.3-2.4,2.8-3.2,4.6c-0.8,1.8-1.2,3.8-1.2,6  C222.2,33.1,222.6,35.1,223.4,36.9 M206.1,44.9h7V22.6h6.5V17H213v-4.5c0-0.7,0.1-1.4,0.2-2.2c0.1-0.7,0.3-1.4,0.7-2  c0.3-0.6,0.8-1.1,1.4-1.5c0.6-0.4,1.4-0.6,2.4-0.6c0.5,0,1,0,1.4,0.1c0.4,0.1,0.9,0.2,1.3,0.3l0.5-5.9c-0.5-0.2-1.1-0.3-1.6-0.3  c-0.5-0.1-1.2-0.1-1.9-0.1c-2.2,0-4,0.3-5.4,1c-1.4,0.7-2.6,1.6-3.5,2.8c-0.9,1.2-1.5,2.5-1.9,4c-0.4,1.5-0.6,3.1-0.6,4.8V17h-5.3  v5.6h5.3V44.9L206.1,44.9z M139.9,20.4c-1.1-1.4-2.6-2.5-4.6-3.2c-1.9-0.7-3.9-1-5.9-1c-1.4,0-2.8,0.2-4.1,0.5  c-1.3,0.3-2.5,0.9-3.5,1.6c-1,0.7-1.9,1.6-2.5,2.8c-0.6,1.1-1,2.5-1,4c0,1.3,0.2,2.4,0.7,3.3c0.5,0.9,1.1,1.6,1.9,2.2  c0.8,0.6,1.7,1.1,2.6,1.5c1,0.4,2,0.7,3.1,0.9c2.1,0.5,3.7,1,4.8,1.5c1.1,0.5,1.6,1.3,1.6,2.5c0,0.6-0.1,1.1-0.4,1.6  c-0.3,0.4-0.6,0.8-1.1,1c-0.4,0.3-0.9,0.4-1.5,0.6c-0.5,0.1-1,0.2-1.5,0.2c-1.5,0-2.9-0.3-4.1-1c-1.2-0.7-2.2-1.5-3-2.5l-4.6,4.3  c1.4,1.5,3.1,2.6,5.1,3.4c2.1,0.8,4.2,1.2,6.3,1.2c1.5,0,3-0.2,4.4-0.5c1.4-0.3,2.7-0.9,3.7-1.6c1.1-0.7,1.9-1.7,2.6-2.9  c0.6-1.2,1-2.6,1-4.3c0-1.4-0.3-2.5-0.8-3.5c-0.5-0.9-1.2-1.7-2.1-2.4c-0.9-0.6-1.8-1.2-2.9-1.5c-1.1-0.4-2.1-0.7-3.2-0.9  c-2-0.5-3.5-0.9-4.5-1.4c-1-0.4-1.5-1.2-1.5-2.3c0-1.1,0.5-1.9,1.4-2.3c0.9-0.5,2-0.7,3.1-0.7c1.3,0,2.5,0.3,3.5,0.9  c1.1,0.6,1.9,1.3,2.6,2.1L139.9,20.4L139.9,20.4z M89,44.9h7V30.6h0.2l11,14.3h9.2l-12.8-15.3L115.7,17h-9L96.1,28.8H96V1h-7V44.9  L89,44.9z M84.3,20.6c-1.1-1.4-2.6-2.4-4.6-3.2c-1.9-0.8-3.9-1.2-6-1.2c-2.1,0-4,0.3-5.8,1c-1.8,0.7-3.4,1.7-4.7,3  c-1.4,1.3-2.4,2.8-3.2,4.7c-0.8,1.8-1.2,3.9-1.2,6.1c0,2.3,0.4,4.4,1.2,6.2c0.8,1.8,1.9,3.4,3.3,4.7c1.4,1.3,3,2.2,4.8,2.9  c1.8,0.7,3.8,1,5.8,1c2.1,0,4-0.3,5.8-1c1.8-0.7,3.3-1.6,4.4-2.9l-4.4-4.4c-0.7,0.8-1.5,1.4-2.6,1.9c-1.1,0.4-2.2,0.6-3.3,0.6  c-1.3,0-2.5-0.3-3.5-0.8c-1-0.5-1.8-1.2-2.5-2.1c-0.7-0.9-1.2-1.8-1.5-2.9c-0.3-1.1-0.5-2.1-0.5-3.2c0-1.1,0.2-2.2,0.5-3.2  c0.3-1.1,0.8-2,1.4-2.9c0.6-0.9,1.4-1.5,2.4-2.1c1-0.5,2.1-0.8,3.4-0.8c1.1,0,2.2,0.3,3.3,0.8c1.1,0.5,1.9,1.2,2.4,1.9L84.3,20.6  L84.3,20.6z M45,44.9h7V17h-7V44.9L45,44.9z M23.8,44.9h7V30c0-0.5,0.1-1.2,0.3-2c0.2-0.9,0.6-1.7,1.1-2.5c0.5-0.8,1.3-1.5,2.3-2.1  c1-0.6,2.2-0.9,3.8-0.9c0.3,0,0.6,0,1,0.1c0.3,0,0.7,0.1,1.2,0.2v-6.4c-0.2-0.1-0.5-0.1-0.8-0.1c-0.3,0-0.6,0-0.9,0  c-1.9,0-3.5,0.5-4.9,1.5c-1.4,1-2.5,2.3-3.3,4h-0.1V17h-6.7V44.9L23.8,44.9z M4.9,22.6v13c0,1.4,0.1,2.6,0.4,3.8  c0.3,1.2,0.7,2.2,1.4,3.1c0.7,0.9,1.6,1.6,2.8,2.1c1.2,0.5,2.7,0.8,4.5,0.8c0.8,0,1.6-0.1,2.4-0.2c0.9-0.1,1.6-0.3,2.2-0.6  l-0.2-5.5c-0.4,0.2-0.9,0.3-1.5,0.4c-0.5,0.1-1,0.1-1.5,0.1c-1.6,0-2.5-0.4-3-1.2c-0.4-0.8-0.7-1.8-0.7-3.1v-13h7V17h-7V8.9H4.9V17  H0v5.6H4.9L4.9,22.6z"></path>	<path class="st1" d="M170.3,38c-1,0-2,0.4-2.7,1.1c-0.7,0.7-1.1,1.7-1.1,2.7c0,1,0.4,1.9,1.1,2.7c0.7,0.8,1.7,1.2,2.7,1.2  c1,0,2-0.4,2.7-1.1c0.8-0.7,1.1-1.7,1.1-2.7c0-1-0.4-2-1.1-2.7C172.3,38.4,171.4,38,170.3,38L170.3,38z"></path>	<path class="st1" d="M170.3,8c1,0,2-0.4,2.7-1.1c0.8-0.7,1.1-1.7,1.1-2.7c0-1.1-0.4-2-1.1-2.7c-0.7-0.7-1.7-1.1-2.7-1.1  c-1.1,0-2,0.4-2.7,1.2c-0.7,0.8-1.1,1.7-1.1,2.7c0,1,0.4,1.9,1.1,2.7C168.3,7.6,169.3,8,170.3,8L170.3,8z"></path>	<path class="st1" d="M170.3,19.1c-1.1,0-2,0.4-2.7,1.2c-0.7,0.8-1.1,1.7-1.1,2.7c0,1,0.4,1.9,1.1,2.7c0.7,0.8,1.7,1.1,2.7,1.1  c1,0,2-0.4,2.7-1.1c0.8-0.7,1.1-1.7,1.1-2.7c0-1.1-0.4-2-1.1-2.7C172.3,19.5,171.4,19.1,170.3,19.1L170.3,19.1z"></path></g></svg>