<?xml version="1.0" encoding="UTF-8"?>
<svg id="Logo" xmlns="http://www.w3.org/2000/svg" version="1.1" viewBox="0 0 448 46">
  <path d="M448,20.4c-1.1-1.4-2.6-2.5-4.6-3.2-1.9-.7-3.9-1-5.9-1-1.4,0-2.8.2-4.1.5-1.3.3-2.5.9-3.5,1.6s-1.9,1.6-2.5,2.8c-.6,1.1-1,2.5-1,4,0,1.3.2,2.4.7,3.3s1.1,1.6,1.9,2.2,1.7,1.1,2.6,1.5c1,.4,2,.7,3.1.9,2.1.5,3.7,1,4.8,1.5,1.1.5,1.6,1.3,1.6,2.5,0,.6-.1,1.1-.4,1.6-.3.4-.6.8-1.1,1-.4.3-.9.4-1.5.6-.5.1-1,.2-1.5.2-1.5,0-2.9-.3-4.1-1s-2.2-1.5-3-2.5l-4.6,4.3c1.4,1.5,3.1,2.6,5.1,3.4,2.1.8,4.2,1.2,6.3,1.2,1.5,0,3-.2,4.4-.5s2.7-.9,3.7-1.6c1.1-.7,1.9-1.7,2.6-2.9.6-1.2,1-2.6,1-4.3,0-1.4-.3-2.5-.8-3.5-.5-.9-1.3-1.7-2.1-2.4-.9-.6-1.8-1.2-2.9-1.5-1.1-.4-2.1-.7-3.2-.9-2-.5-3.5-.9-4.5-1.4-1-.4-1.5-1.2-1.5-2.3s.5-1.9,1.4-2.3c.9-.5,2-.7,3.1-.7,1.3,0,2.5.3,3.5.9,1.1.6,1.9,1.3,2.6,2.1l4.4-4.1h0ZM397.1,44.9h7v-14.3h.2l11,14.3h9.2l-12.8-15.3,12.1-12.6h-9l-10.6,11.7h-.2V1h-7v43.9h.1ZM392.4,20.6c-1.1-1.4-2.6-2.4-4.6-3.2-1.9-.8-3.9-1.2-6-1.2s-4,.3-5.8,1-3.4,1.7-4.7,3c-1.4,1.3-2.4,2.8-3.2,4.7-.8,1.8-1.2,3.9-1.2,6.1s.4,4.4,1.2,6.2c.8,1.8,1.9,3.4,3.3,4.7s3,2.2,4.8,2.9,3.8,1,5.8,1c2.1,0,4-.3,5.8-1s3.3-1.6,4.4-2.9l-4.4-4.4c-.7.8-1.5,1.4-2.6,1.9-1.1.4-2.2.6-3.3.6-1.3,0-2.5-.3-3.5-.8s-1.8-1.2-2.5-2.1c-.7-.9-1.2-1.8-1.5-2.9-.3-1.1-.5-2.1-.5-3.2s.2-2.2.5-3.2c.3-1.1.8-2,1.4-2.9s1.4-1.5,2.4-2.1c1-.5,2.1-.8,3.4-.8,1.1,0,2.2.3,3.3.8,1.1.5,1.9,1.2,2.4,1.9l5.1-4.1h0ZM353.1,44.9h7v-27.9h-7v27.9h0ZM331.9,44.9h7v-14.9c0-.5.1-1.2.3-2,.2-.9.6-1.7,1.1-2.5s1.3-1.5,2.3-2.1,2.2-.9,3.8-.9c.3,0,.6,0,1,.1.3,0,.7.1,1.2.2v-6.4c-.2-.1-.5-.1-.8-.1h-.9c-1.9,0-3.5.5-4.9,1.5s-2.5,2.3-3.3,4h-.1v-4.8h-6.7v27.9h0ZM317.5,34.1c-.3,1.1-.8,2.1-1.5,2.9-.7.9-1.5,1.6-2.5,2.1s-2.2.8-3.5.8-2.4-.3-3.4-.8-1.9-1.2-2.6-2.1c-.7-.9-1.3-1.8-1.6-2.9-.4-1.1-.6-2.1-.6-3.2s.2-2.2.6-3.3c.4-1.1.9-2.1,1.6-2.9.7-.9,1.6-1.6,2.6-2.1s2.1-.8,3.4-.8c1.4,0,2.5.3,3.5.8s1.8,1.2,2.5,2.1,1.2,1.8,1.5,2.9.5,2.1.5,3.2-.1,2.2-.5,3.3M295.1,1v43.9h6.6v-4.2h.1c1,1.6,2.3,2.9,4,3.7,1.7.9,3.6,1.3,5.6,1.3,2.1,0,4-.4,5.7-1.2s3.1-1.9,4.3-3.2c1.2-1.3,2.1-2.9,2.7-4.7s1-3.7,1-5.8-.3-4-1-5.8-1.6-3.3-2.8-4.7c-1.2-1.3-2.6-2.4-4.3-3.1-1.7-.8-3.5-1.1-5.5-1.1-1.3,0-2.4.1-3.4.4s-1.9.7-2.6,1.1c-.8.4-1.4.9-1.9,1.4s-1,1-1.3,1.5h-.3V1h-6.9ZM259.3,44.9h7v-14.9c0-.5.1-1.2.3-2,.2-.9.6-1.7,1.1-2.5s1.3-1.5,2.3-2.1,2.2-.9,3.8-.9c.3,0,.6,0,1,.1.3,0,.7.1,1.2.2v-6.4c-.2-.1-.5-.1-.8-.1h-.9c-1.9,0-3.5.5-4.9,1.5s-2.5,2.3-3.3,4h-.1v-4.8h-6.7v27.9h0ZM229.8,27.6c.3-1.1.8-2,1.5-2.9s1.5-1.5,2.5-2.1c1-.5,2.2-.8,3.6-.8s2.6.3,3.6.8,1.8,1.2,2.5,2.1,1.2,1.8,1.5,2.9.5,2.1.5,3.2-.2,2.2-.5,3.3c-.3,1.1-.8,2.1-1.5,2.9-.7.9-1.5,1.6-2.5,2.1s-2.2.8-3.6.8-2.6-.3-3.6-.8-1.8-1.2-2.5-2.1c-.7-.9-1.2-1.8-1.5-2.9-.3-1.1-.5-2.2-.5-3.3,0-1,.1-2.1.5-3.2M223.4,36.9c.8,1.8,1.9,3.4,3.2,4.7,1.4,1.3,3,2.3,4.8,3.1,1.9.7,3.8,1.1,5.9,1.1s4.1-.4,5.9-1.1c1.9-.7,3.5-1.8,4.8-3.1,1.4-1.3,2.4-2.9,3.2-4.7s1.2-3.8,1.2-6-.4-4.2-1.2-6-1.9-3.3-3.2-4.6c-1.4-1.3-3-2.3-4.8-3-1.9-.7-3.8-1-5.9-1s-4.1.3-5.9,1c-1.9.7-3.5,1.7-4.8,3-1.4,1.3-2.4,2.8-3.2,4.6-.8,1.8-1.2,3.8-1.2,6s.4,4.2,1.2,6M206.1,44.9h7v-22.3h6.5v-5.6h-6.6v-4.5c0-.7.1-1.4.2-2.2.1-.7.3-1.4.7-2,.3-.6.8-1.1,1.4-1.5.6-.4,1.4-.6,2.4-.6.5,0,1,0,1.4.1s.9.2,1.3.3l.5-5.9c-.5-.2-1.1-.3-1.6-.3-.5-.1-1.2-.1-1.9-.1-2.2,0-4,.3-5.4,1-1.4.7-2.6,1.6-3.5,2.8-.9,1.2-1.5,2.5-1.9,4s-.6,3.1-.6,4.8v4.1h-5.3v5.6h5.3v22.3h.1ZM139.9,20.4c-1.1-1.4-2.6-2.5-4.6-3.2-1.9-.7-3.9-1-5.9-1-1.4,0-2.8.2-4.1.5-1.3.3-2.5.9-3.5,1.6s-1.9,1.6-2.5,2.8c-.6,1.1-1,2.5-1,4,0,1.3.2,2.4.7,3.3s1.1,1.6,1.9,2.2,1.7,1.1,2.6,1.5c1,.4,2,.7,3.1.9,2.1.5,3.7,1,4.8,1.5s1.6,1.3,1.6,2.5c0,.6-.1,1.1-.4,1.6-.3.4-.6.8-1.1,1-.4.3-.9.4-1.5.6-.5.1-1,.2-1.5.2-1.5,0-2.9-.3-4.1-1s-2.2-1.5-3-2.5l-4.6,4.3c1.4,1.5,3.1,2.6,5.1,3.4,2.1.8,4.2,1.2,6.3,1.2,1.5,0,3-.2,4.4-.5s2.7-.9,3.7-1.6c1.1-.7,1.9-1.7,2.6-2.9.6-1.2,1-2.6,1-4.3,0-1.4-.3-2.5-.8-3.5-.5-.9-1.2-1.7-2.1-2.4-.9-.6-1.8-1.2-2.9-1.5-1.1-.4-2.1-.7-3.2-.9-2-.5-3.5-.9-4.5-1.4-1-.4-1.5-1.2-1.5-2.3s.5-1.9,1.4-2.3c.9-.5,2-.7,3.1-.7,1.3,0,2.5.3,3.5.9,1.1.6,1.9,1.3,2.6,2.1l4.4-4.1h0ZM89,44.9h7v-14.3h.2l11,14.3h9.2l-12.8-15.3,12.1-12.6h-9l-10.6,11.8h-.1V1h-7v43.9h0ZM84.3,20.6c-1.1-1.4-2.6-2.4-4.6-3.2-1.9-.8-3.9-1.2-6-1.2s-4,.3-5.8,1-3.4,1.7-4.7,3c-1.4,1.3-2.4,2.8-3.2,4.7-.8,1.8-1.2,3.9-1.2,6.1s.4,4.4,1.2,6.2,1.9,3.4,3.3,4.7,3,2.2,4.8,2.9c1.8.7,3.8,1,5.8,1,2.1,0,4-.3,5.8-1s3.3-1.6,4.4-2.9l-4.4-4.4c-.7.8-1.5,1.4-2.6,1.9-1.1.4-2.2.6-3.3.6-1.3,0-2.5-.3-3.5-.8s-1.8-1.2-2.5-2.1c-.7-.9-1.2-1.8-1.5-2.9-.3-1.1-.5-2.1-.5-3.2s.2-2.2.5-3.2c.3-1.1.8-2,1.4-2.9s1.4-1.5,2.4-2.1c1-.5,2.1-.8,3.4-.8,1.1,0,2.2.3,3.3.8,1.1.5,1.9,1.2,2.4,1.9l5.1-4.1h0ZM45,44.9h7v-27.9h-7v27.9h0ZM23.8,44.9h7v-14.9c0-.5.1-1.2.3-2,.2-.9.6-1.7,1.1-2.5.5-.8,1.3-1.5,2.3-2.1s2.2-.9,3.8-.9c.3,0,.6,0,1,.1.3,0,.7.1,1.2.2v-6.4c-.2-.1-.5-.1-.8-.1h-.9c-1.9,0-3.5.5-4.9,1.5s-2.5,2.3-3.3,4h-.1v-4.8h-6.7v27.9h0ZM4.9,22.6v13c0,1.4.1,2.6.4,3.8s.7,2.2,1.4,3.1c.7.9,1.6,1.6,2.8,2.1s2.7.8,4.5.8c.8,0,1.6-.1,2.4-.2.9-.1,1.6-.3,2.2-.6l-.2-5.5c-.4.2-.9.3-1.5.4-.5.1-1,.1-1.5.1-1.6,0-2.5-.4-3-1.2-.4-.8-.7-1.8-.7-3.1v-13h7v-5.3h-7v-8.1h-6.8v8.1H0v5.6h4.9Z" fill="#fff" stroke-width="0"/>
  <path d="M170.3,38c-1,0-2,.4-2.7,1.1-.7.7-1.1,1.7-1.1,2.7s.4,1.9,1.1,2.7c.7.8,1.7,1.2,2.7,1.2s2-.4,2.7-1.1c.8-.7,1.1-1.7,1.1-2.7s-.4-2-1.1-2.7c-.7-.8-1.6-1.2-2.7-1.2h0Z" fill="#f93822" stroke-width="0"/>
  <path d="M170.3,8c1,0,2-.4,2.7-1.1.8-.7,1.1-1.7,1.1-2.7,0-1.1-.4-2-1.1-2.7-.7-.7-1.7-1.1-2.7-1.1-1.1,0-2,.4-2.7,1.2s-1.1,1.7-1.1,2.7.4,1.9,1.1,2.7c.7.6,1.7,1,2.7,1h0Z" fill="#f93822" stroke-width="0"/>
  <path d="M170.3,19.1c-1.1,0-2,.4-2.7,1.2-.7.8-1.1,1.7-1.1,2.7s.4,1.9,1.1,2.7c.7.8,1.7,1.1,2.7,1.1s2-.4,2.7-1.1c.8-.7,1.1-1.7,1.1-2.7,0-1.1-.4-2-1.1-2.7-.7-.8-1.6-1.2-2.7-1.2h0Z" fill="#f93822" stroke-width="0"/>
</svg>