<?xml version="1.0" encoding="UTF-8" standalone="no"?><!DOCTYPE svg PUBLIC "-//W3C//DTD SVG 1.1//EN" "http://www.w3.org/Graphics/SVG/1.1/DTD/svg11.dtd"><svg width="100%" height="100%" viewBox="0 0 6867 1617" version="1.1" xmlns="http://www.w3.org/2000/svg" xmlns:xlink="http://www.w3.org/1999/xlink" xml:space="preserve" xmlns:serif="http://www.serif.com/" style="fill-rule:evenodd;clip-rule:evenodd;stroke-linejoin:round;stroke-miterlimit:2;"><path d="M6629.12,711.754c-42.275,-14.375 -77.796,-32.9 -81.875,-73.871c-3.092,-40.991 20.225,-78.891 72.725,-81.962c22.358,-1.058 68.575,-2.084 149.737,30.746l18.334,-141.58c-94.304,-32.795 -144.513,-32.795 -182.55,-30.641c-121.738,6.075 -207.138,100.45 -207.138,223.437c0,123.192 102.363,181.596 217.434,223.609c41.075,14.308 72.741,32.779 75.883,74.862c4.167,40 -32.604,70.763 -75.883,73.838c-33.838,3.004 -124.934,1.041 -209.167,-58.525l-18.371,153.837c99.221,51.321 190.471,56.509 231.704,53.334c137.292,-7.067 221.459,-100.538 221.459,-222.484c0.016,-116.875 -98.525,-182.637 -212.292,-224.6" style="fill:#fff;fill-rule:nonzero;stroke:#fff;stroke-width:17.38px;"/><path d="M2840.61,730.175l-279.358,-310.871l-57.029,0l-0,732.625l148.712,0l0,-408.333l187.675,196.767l187.742,-196.767l-1.092,408.333l148.575,0l0,-732.625l-56.145,0l-279.08,310.871Z" style="fill:#fff;fill-rule:nonzero;stroke:#fff;stroke-width:17.38px;"/><path d="M3515.5,859.429l192.796,0l0,-146.616l-192.796,-0l0,-146.667l220.504,-0l0,-146.579l-367.241,-0l-0,732.341l379.496,0l-0,-145.954l-232.759,0l0,-146.525Z" style="fill:#fff;fill-rule:nonzero;stroke:#fff;stroke-width:17.38px;"/><path d="M4325.5,834.792l-357.083,-415.488l-51.98,0l0,732.604l146.53,0l-0,-398.191l356.854,398.191l53.579,0l0,-731.404l-147.9,0l-0,414.288Z" style="fill:#fff;fill-rule:nonzero;stroke:#fff;stroke-width:17.38px;"/><path d="M4587.83,566.146l182.642,-0l0,585.762l146.646,0l-0,-585.762l182.642,-0l-0,-145.642l-511.93,0l0,145.642Z" style="fill:#fff;fill-rule:nonzero;stroke:#fff;stroke-width:17.38px;"/><path d="M6023.83,859.429l192.796,0l0,-146.616l-192.796,-0l0,-146.667l220.642,-0l0,-146.579l-367.325,-0l0,732.341l379.458,0l0,-145.954l-232.775,0l0,-146.525Z" style="fill:#fff;fill-rule:nonzero;stroke:#fff;stroke-width:17.38px;"/><path d="M686.875,1433.45l-407.742,0l368.263,-1028.23l293.629,444.204l99.496,-150.541l-437.204,-661.805l-559.896,1562.31l732.654,-0l788.942,-1194.17l368.262,1028.23l-407.604,0l-255.362,-386.321l-99.221,150.542l265.333,401.717l732.654,-0l-559.671,-1562.31l-922.533,1396.37Z" style="fill:#fff;fill-rule:nonzero;stroke:#fff;stroke-width:17.38px;"/><path d="M5506.46,419.567l-288.941,-0l-0,732.362l146.37,0l0,-279.187l62.155,-0l135.175,279.187l156.458,0l-144.183,-299.933c222.708,-63.696 192.587,-432.429 -67.034,-432.429m9.063,310.608l-1.317,-0c-0.142,0.033 -0.296,-0.038 -0.504,-0l-149.808,-0l-0,-164.029l129.25,-0c91.32,-0 98.491,141.283 22.379,164.029" style="fill:#fff;fill-rule:nonzero;stroke:#fff;stroke-width:17.38px;"/></svg>