<?xml version="1.0" encoding="UTF-8" standalone="no"?><!DOCTYPE svg PUBLIC "-//W3C//DTD SVG 1.1//EN" "http://www.w3.org/Graphics/SVG/1.1/DTD/svg11.dtd"><svg width="100%" height="100%" viewBox="0 0 1648 388" version="1.1" xmlns="http://www.w3.org/2000/svg" xmlns:xlink="http://www.w3.org/1999/xlink" xml:space="preserve" xmlns:serif="http://www.serif.com/" style="fill-rule:evenodd;clip-rule:evenodd;stroke-linejoin:round;stroke-miterlimit:2;"><path d="M1590.99,170.821c-10.146,-3.45 -18.671,-7.896 -19.65,-17.729c-0.742,-9.838 4.854,-18.934 17.454,-19.671c5.366,-0.254 16.458,-0.5 35.937,7.379l4.4,-33.979c-22.633,-7.871 -34.683,-7.871 -43.812,-7.354c-29.217,1.458 -49.713,24.108 -49.713,53.625c0,29.566 24.567,43.583 52.184,53.666c9.858,3.434 17.458,7.867 18.212,17.967c1,9.6 -7.825,16.983 -18.212,17.721c-8.121,0.721 -29.984,0.25 -50.2,-14.046l-4.409,36.921c23.813,12.317 45.713,13.562 55.609,12.8c32.95,-1.696 53.15,-24.129 53.15,-53.396c0.004,-28.05 -23.646,-43.833 -50.95,-53.904" style="fill-rule:nonzero;stroke:#fff;stroke-width:4.17px;"/><path d="M681.746,175.242l-67.046,-74.609l-13.687,0l-0,175.83l35.691,-0l0,-98l45.042,47.224l45.058,-47.224l-0.262,98l35.658,-0l0,-175.83l-13.475,0l-66.979,74.609Z" style="fill-rule:nonzero;stroke:#fff;stroke-width:4.17px;"/><path d="M843.721,206.263l46.271,-0l-0,-35.188l-46.271,0l-0,-35.2l52.921,0l-0,-35.179l-88.138,-0l0,175.762l91.079,0l0,-35.029l-55.862,0l-0,-35.166Z" style="fill-rule:nonzero;stroke:#fff;stroke-width:4.17px;"/><path d="M1038.12,200.35l-85.7,-99.717l-12.475,0l-0,175.825l35.167,0l-0,-95.566l85.645,95.566l12.859,0l-0,-175.537l-35.496,-0l-0,99.429Z" style="fill-rule:nonzero;stroke:#fff;stroke-width:4.17px;"/><path d="M1101.08,135.875l43.834,0l-0,140.583l35.195,0l0,-140.583l43.834,0l-0,-34.954l-122.863,-0l0,34.954Z" style="fill-rule:nonzero;stroke:#fff;stroke-width:4.17px;"/><path d="M1445.72,206.263l46.271,-0l-0,-35.188l-46.271,0l-0,-35.2l52.954,0l-0,-35.179l-88.158,-0l-0,175.762l91.07,0l0,-35.029l-55.866,0l-0,-35.166Z" style="fill-rule:nonzero;stroke:#fff;stroke-width:4.17px;"/><path d="M164.85,344.029l-97.858,0l88.383,-246.775l70.471,106.609l23.879,-36.13l-104.929,-158.833l-134.375,374.954l175.837,0l189.346,-286.6l88.383,246.775l-97.825,0l-61.287,-92.717l-23.813,36.13l63.68,96.412l175.837,0l-134.321,-374.954l-221.408,335.129Z" style="fill-rule:nonzero;stroke:#fff;stroke-width:4.17px;"/><path d="M1321.55,100.696l-69.346,-0l0,175.767l35.129,-0l0,-67.005l14.917,0l32.442,67.005l37.55,-0l-34.604,-71.984c53.45,-15.287 46.221,-103.783 -16.088,-103.783m2.175,74.546l-0.316,-0c-0.034,0.008 -0.071,-0.009 -0.121,-0l-35.954,-0l-0,-39.367l31.02,0c21.917,0 23.638,33.908 5.371,39.367" style="fill-rule:nonzero;stroke:#fff;stroke-width:4.17px;"/></svg>